<?xml version="1.0" encoding="UTF-8"?>
<svg id="Layer_1" data-name="Layer 1" xmlns="http://www.w3.org/2000/svg" viewBox="0 0 272.2 221.78">
  <defs>
    <style>
      .cls-1 {
        font-family: Poppins-SemiBold, Poppins;
        font-size: 22px;
        font-weight: 600;
        isolation: isolate;
        letter-spacing: .32em;
      }

      .cls-2 {
        fill: #fff;
      }

      .cls-3 {
        fill: #131314;
      }

      .cls-4 {
        fill: #3b3b3d;
      }
    </style>
  </defs>
  <path class="cls-3" d="M82.6,0c30.7,0,53.3,6.5,68.6,20.9,12.2,11.3,21.6,28.1,21.6,52.3,0,27.6-11.5,48.7-30,62.6-17.8,13.4-40.6,20.2-67.9,20.2H8.9v-8.9c18.2-1.4,20.4-3.6,20.4-23.5V32.4c0-20.2-2.6-22.1-20.4-23.5V0H82.6Zm-19.9,121.9c0,17,4.3,22.8,21.8,22.8,32.4,0,51.1-22.6,51.1-67.9,0-22.8-6.2-42.7-17.3-53-10.1-10.1-22.6-13.4-38.6-13.4-8.9,0-13,1.9-14.4,3.4-2.2,2.2-2.6,6.2-2.6,13.2V121.9Z"/>
  <path class="cls-4" d="M163.8,23.1c44.4,0,80.6,32.4,80.6,79.7,0,51.1-36.5,83.3-81.8,83.3-48,0-82.8-35-82.8-81.4,0-41,29.2-81.6,84-81.6h0Zm-3.6,10.6c-24.5,0-42.5,24-42.5,66.5s16.1,75.4,48.5,75.4c22.8,0,40.6-22.1,40.6-66-.1-47.6-18.8-75.9-46.6-75.9h0Zm18,133.4c30.7,23.5,55.4,40.3,73.2,47l-2.2,7.2c-10.8,1-28.8,.5-38.2-2.2-20.9-6-46.1-25.4-66.2-41.5l33.4-10.5h0Z"/>
  <rect class="cls-2" y="59.1" width="272.2" height="37.7"/>
  <text class="cls-1" transform="translate(19.77 86.26)"><tspan x="0" y="0">DERMA QUEST</tspan></text>
</svg>