<svg width="81" height="32" viewBox="0 0 81 32" fill="none" xmlns="http://www.w3.org/2000/svg">
<line x1="7.5" y1="9.5" x2="26.5" y2="9.5" stroke="black" stroke-linecap="round"/>
<path d="M0.667969 14.4707C0.865234 14.4316 1.06152 14.3975 1.25684 14.3682C1.45215 14.3389 1.64062 14.3154 1.82227 14.2979C2.00586 14.2783 2.17969 14.2646 2.34375 14.2568C2.50781 14.2471 2.65723 14.2422 2.79199 14.2422C3.24316 14.2422 3.6377 14.291 3.97559 14.3887C4.31543 14.4863 4.59766 14.6279 4.82227 14.8135C5.04883 14.999 5.21875 15.2266 5.33203 15.4961C5.44531 15.7656 5.50195 16.0713 5.50195 16.4131C5.50195 16.6162 5.48047 16.8232 5.4375 17.0342C5.39648 17.2432 5.33105 17.4453 5.24121 17.6406C5.15137 17.834 5.03418 18.0166 4.88965 18.1885C4.74707 18.3584 4.57422 18.5078 4.37109 18.6367C4.16797 18.7637 3.93262 18.8643 3.66504 18.9385C3.39941 19.0107 3.09766 19.0469 2.75977 19.0469C2.66797 19.0469 2.5791 19.0439 2.49316 19.0381C2.40918 19.0342 2.32324 19.0293 2.23535 19.0234C2.14551 19.0176 2.05176 19.0117 1.9541 19.0059C1.8584 19.002 1.75391 19 1.64062 19C1.52539 19 1.41016 19.002 1.29492 19.0059C1.17969 19.0117 1.0752 19.0176 0.981445 19.0234C0.887695 19.0293 0.810547 19.0352 0.75 19.041C0.689453 19.0449 0.65625 19.0469 0.650391 19.0469C0.650391 19.0293 0.65332 19.0049 0.65918 18.9736C0.666992 18.9404 0.689453 18.9062 0.726562 18.8711C0.765625 18.8359 0.826172 18.8037 0.908203 18.7744C0.992188 18.7451 1.11133 18.7246 1.26562 18.7129C1.27344 18.625 1.2793 18.5195 1.2832 18.3965C1.28906 18.2715 1.29297 18.1357 1.29492 17.9893C1.29883 17.8408 1.30078 17.6855 1.30078 17.5234V15.0859C1.30078 14.9941 1.2998 14.915 1.29785 14.8486C1.29785 14.7803 1.29688 14.7188 1.29492 14.6641L0.943359 14.7168C0.826172 14.7344 0.708984 14.7539 0.591797 14.7754L0.667969 14.4707ZM2.50781 14.5645C2.375 14.5645 2.22852 14.5703 2.06836 14.582C2.06445 14.6797 2.06152 14.792 2.05957 14.9189C2.05762 15.0439 2.05664 15.1943 2.05664 15.3701V16.7969C2.05664 17.0996 2.05664 17.3516 2.05664 17.5527C2.05859 17.7539 2.05957 17.917 2.05957 18.042C2.06152 18.165 2.06348 18.2559 2.06543 18.3145C2.06934 18.373 2.07422 18.4121 2.08008 18.4316C2.08594 18.4941 2.10352 18.5449 2.13281 18.584C2.16406 18.6211 2.20508 18.6504 2.25586 18.6719C2.30859 18.6914 2.37012 18.7041 2.44043 18.71C2.51074 18.7158 2.58887 18.7188 2.6748 18.7188C2.95996 18.7188 3.20703 18.6943 3.41602 18.6455C3.625 18.5947 3.80273 18.5264 3.94922 18.4404C4.0957 18.3525 4.21387 18.249 4.30371 18.1299C4.39551 18.0107 4.4668 17.8818 4.51758 17.7432C4.56836 17.6045 4.60254 17.459 4.62012 17.3066C4.6377 17.1523 4.64648 16.998 4.64648 16.8438C4.64648 16.4395 4.59863 16.0938 4.50293 15.8066C4.40723 15.5176 4.26758 15.2812 4.08398 15.0977C3.90234 14.9141 3.67871 14.7793 3.41309 14.6934C3.14746 14.6074 2.8457 14.5645 2.50781 14.5645ZM7.47656 16.7441V17.875C7.47656 18.0215 7.47754 18.1436 7.47949 18.2412C7.48145 18.3389 7.48438 18.4062 7.48828 18.4434C7.49219 18.5 7.50293 18.5449 7.52051 18.5781C7.54004 18.6094 7.57227 18.6338 7.61719 18.6514C7.66211 18.667 7.72363 18.6777 7.80176 18.6836C7.87988 18.6875 7.98047 18.6895 8.10352 18.6895C8.28711 18.6895 8.44629 18.6855 8.58105 18.6777C8.71582 18.668 8.83301 18.6504 8.93262 18.625C9.03223 18.5996 9.11816 18.5635 9.19043 18.5166C9.26465 18.4697 9.33105 18.4082 9.38965 18.332C9.44824 18.2539 9.50391 18.1602 9.55664 18.0508C9.60938 17.9414 9.66602 17.8105 9.72656 17.6582L9.99023 17.7168C9.94336 17.9277 9.90234 18.1074 9.86719 18.2559C9.83203 18.4023 9.7998 18.5254 9.77051 18.625C9.74121 18.7227 9.71289 18.8008 9.68555 18.8594C9.6582 18.916 9.62793 18.959 9.59473 18.9883C9.56348 19.0156 9.52734 19.0332 9.48633 19.041C9.44727 19.0488 9.40039 19.0527 9.3457 19.0527C9.30273 19.0527 9.23535 19.0508 9.14355 19.0469C9.05176 19.0449 8.94531 19.042 8.82422 19.0381C8.70312 19.0342 8.57031 19.0303 8.42578 19.0264C8.2832 19.0225 8.1377 19.0186 7.98926 19.0146C7.84277 19.0107 7.69824 19.0068 7.55566 19.0029C7.41309 19.001 7.28125 19 7.16016 19C6.81445 19 6.55273 19.0078 6.375 19.0234C6.19531 19.0391 6.08594 19.0469 6.04688 19.0469C6.04688 19.0293 6.0498 19.0049 6.05566 18.9736C6.06348 18.9404 6.08691 18.9062 6.12598 18.8711C6.16504 18.8359 6.22754 18.8037 6.31348 18.7744C6.39941 18.7451 6.52148 18.7246 6.67969 18.7129C6.6875 18.6309 6.69336 18.5273 6.69727 18.4023C6.70312 18.2773 6.70703 18.1436 6.70898 18.001C6.71289 17.8584 6.71484 17.7129 6.71484 17.5645V16.3486C6.71484 16.126 6.71387 15.9365 6.71191 15.7803C6.71191 15.6221 6.71094 15.4932 6.70898 15.3936C6.70703 15.292 6.70508 15.208 6.70312 15.1416C6.70117 15.0752 6.69922 15.0215 6.69727 14.9805C6.69531 14.9395 6.69336 14.9004 6.69141 14.8633C6.6875 14.8086 6.68066 14.7656 6.6709 14.7344C6.66309 14.7031 6.63867 14.6787 6.59766 14.6611C6.55664 14.6436 6.49219 14.6299 6.4043 14.6201C6.31836 14.6084 6.19531 14.5957 6.03516 14.582L6.13477 14.3242C6.18359 14.332 6.30078 14.3398 6.48633 14.3477C6.67383 14.3555 6.91992 14.3594 7.22461 14.3594C7.37695 14.3594 7.53516 14.3584 7.69922 14.3564C7.86523 14.3545 8.02832 14.3516 8.18848 14.3477C8.35059 14.3438 8.50391 14.3398 8.64844 14.3359C8.79492 14.332 8.92578 14.3281 9.04102 14.3242C9.1543 14.3203 9.24609 14.3174 9.31641 14.3154C9.38867 14.3135 9.43066 14.3125 9.44238 14.3125C9.46973 14.3125 9.49805 14.3223 9.52734 14.3418C9.55664 14.3594 9.57227 14.3984 9.57422 14.459C9.57812 14.5723 9.58008 14.7129 9.58008 14.8809C9.58008 15.0488 9.58398 15.2227 9.5918 15.4023L9.33398 15.4316C9.30859 15.3105 9.2832 15.207 9.25781 15.1211C9.23242 15.0352 9.20117 14.9648 9.16406 14.9102C9.12695 14.8535 9.08008 14.8096 9.02344 14.7783C8.96875 14.7451 8.89746 14.7207 8.80957 14.7051C8.72168 14.6895 8.61523 14.6797 8.49023 14.6758C8.36523 14.6719 8.21484 14.6699 8.03906 14.6699H7.50586C7.5 14.7754 7.49512 14.8867 7.49121 15.0039C7.4873 15.1211 7.48438 15.25 7.48242 15.3906C7.48047 15.5312 7.47852 15.6875 7.47656 15.8594C7.47656 16.0293 7.47656 16.2207 7.47656 16.4336C7.71289 16.416 7.92773 16.4004 8.12109 16.3867C8.31445 16.373 8.48145 16.3613 8.62207 16.3516C8.7627 16.3418 8.875 16.335 8.95898 16.3311C9.04297 16.3252 9.09375 16.3223 9.11133 16.3223C9.17188 16.3223 9.21387 16.3467 9.2373 16.3955C9.2627 16.4424 9.27539 16.4951 9.27539 16.5537C9.27539 16.6084 9.26855 16.6582 9.25488 16.7031C9.24121 16.7461 9.22852 16.7832 9.2168 16.8145C9.06445 16.8066 8.91602 16.7998 8.77148 16.7939C8.62695 16.7861 8.4834 16.7793 8.34082 16.7734C8.2002 16.7676 8.05762 16.7627 7.91309 16.7588C7.77051 16.7529 7.625 16.748 7.47656 16.7441ZM11.0742 17.5293V15.0713C11.0742 14.9795 11.0732 14.9004 11.0713 14.834C11.0713 14.7656 11.0703 14.7051 11.0684 14.6523C10.9512 14.668 10.833 14.6855 10.7139 14.7051C10.5967 14.7227 10.4824 14.7422 10.3711 14.7637L10.4414 14.4707C10.5664 14.4395 10.71 14.4102 10.8721 14.3828C11.0361 14.3535 11.2051 14.3291 11.3789 14.3096C11.5547 14.2881 11.7305 14.2715 11.9062 14.2598C12.082 14.248 12.2461 14.2422 12.3984 14.2422C12.541 14.2422 12.6846 14.249 12.8291 14.2627C12.9756 14.2744 13.1152 14.2969 13.248 14.3301C13.3828 14.3633 13.5088 14.4082 13.626 14.4648C13.7451 14.5215 13.8477 14.5947 13.9336 14.6846C14.0215 14.7725 14.0898 14.8779 14.1387 15.001C14.1895 15.124 14.2148 15.2676 14.2148 15.4316C14.2148 15.6016 14.1875 15.7549 14.1328 15.8916C14.0801 16.0283 14.0068 16.1504 13.9131 16.2578C13.8193 16.3652 13.708 16.458 13.5791 16.5361C13.4521 16.6143 13.3145 16.6797 13.166 16.7324C13.3164 17.0039 13.4512 17.2432 13.5703 17.4502C13.6895 17.6553 13.7998 17.834 13.9014 17.9863C14.0029 18.1387 14.1006 18.2666 14.1943 18.3701C14.2881 18.4717 14.3848 18.5547 14.4844 18.6191C14.5859 18.6816 14.6943 18.7285 14.8096 18.7598C14.9268 18.7891 15.0586 18.8066 15.2051 18.8125L15.1055 19.041C15 19.0586 14.8945 19.0713 14.7891 19.0791C14.6855 19.0889 14.5967 19.0938 14.5225 19.0938C14.3721 19.0938 14.2354 19.0762 14.1123 19.041C13.9912 19.0059 13.8779 18.9541 13.7725 18.8857C13.6689 18.8154 13.5703 18.7285 13.4766 18.625C13.3828 18.5215 13.2881 18.4004 13.1924 18.2617C13.0986 18.123 13.002 17.9678 12.9023 17.7959C12.8047 17.624 12.6973 17.4355 12.5801 17.2305L12.5039 17.0957C12.4863 17.0664 12.4697 17.0439 12.4541 17.0283C12.4404 17.0107 12.4248 16.998 12.4072 16.9902C12.3916 16.9805 12.374 16.9746 12.3545 16.9727C12.3369 16.9688 12.3164 16.9668 12.293 16.9668C12.2754 16.9668 12.2549 16.9668 12.2314 16.9668C12.2061 16.9688 12.1758 16.9697 12.1406 16.9697C12.1055 16.9697 12.0635 16.9697 12.0146 16.9697C11.9639 16.9717 11.9043 16.9727 11.8359 16.9727C11.8359 17.3652 11.8359 17.6846 11.8359 17.9307C11.8379 18.1748 11.8438 18.3594 11.8535 18.4844C11.8574 18.5391 11.8643 18.583 11.874 18.6162C11.8838 18.6475 11.9111 18.6738 11.9561 18.6953C12.001 18.7148 12.0703 18.7305 12.1641 18.7422C12.2598 18.7539 12.3945 18.7656 12.5684 18.7773L12.4512 19.041C12.4004 19.0352 12.3369 19.0293 12.2607 19.0234C12.1846 19.0195 12.1016 19.0156 12.0117 19.0117C11.9219 19.0078 11.8291 19.0049 11.7334 19.0029C11.6377 19.001 11.5469 19 11.4609 19C11.3223 19 11.1914 19.002 11.0684 19.0059C10.9453 19.0117 10.8369 19.0176 10.7432 19.0234C10.6494 19.0293 10.5732 19.0352 10.5146 19.041C10.4561 19.0449 10.4199 19.0469 10.4062 19.0469C10.4062 19.0293 10.4092 19.0049 10.415 18.9736C10.4229 18.9404 10.4463 18.9062 10.4854 18.8711C10.5244 18.8359 10.5869 18.8037 10.6729 18.7744C10.7588 18.7451 10.8809 18.7246 11.0391 18.7129C11.0469 18.625 11.0527 18.5195 11.0566 18.3965C11.0625 18.2734 11.0664 18.1387 11.0684 17.9922C11.0723 17.8457 11.0742 17.6914 11.0742 17.5293ZM12.1641 14.5586C12.1094 14.5586 12.0586 14.5605 12.0117 14.5645C11.9648 14.5664 11.9102 14.5703 11.8477 14.5762C11.8438 14.6895 11.8408 14.8125 11.8389 14.9453C11.8369 15.0762 11.8359 15.2256 11.8359 15.3936V16.6914H11.918C12.041 16.6914 12.1621 16.6865 12.2812 16.6768C12.4023 16.665 12.5166 16.6455 12.624 16.6182C12.7334 16.5889 12.834 16.5488 12.9258 16.498C13.0195 16.4453 13.0996 16.3789 13.166 16.2988C13.2344 16.2168 13.2871 16.1182 13.3242 16.0029C13.3633 15.8857 13.3828 15.749 13.3828 15.5928C13.3828 15.4053 13.3545 15.2461 13.2979 15.1152C13.2432 14.9844 13.1631 14.8779 13.0576 14.7959C12.9541 14.7119 12.8262 14.6514 12.6738 14.6143C12.5234 14.5771 12.3535 14.5586 12.1641 14.5586ZM20.2646 14.3535C20.2764 14.3535 20.3135 14.3545 20.376 14.3564C20.4385 14.3584 20.5117 14.3594 20.5957 14.3594C20.7207 14.3594 20.8428 14.3564 20.9619 14.3506C21.083 14.3447 21.1904 14.3389 21.2842 14.333C21.3779 14.3271 21.4541 14.3213 21.5127 14.3154C21.5713 14.3096 21.6025 14.3066 21.6064 14.3066C21.6064 14.3301 21.6025 14.3594 21.5947 14.3945C21.5869 14.4277 21.5605 14.4619 21.5156 14.4971C21.4727 14.5322 21.4023 14.5645 21.3047 14.5938C21.207 14.623 21.0693 14.6445 20.8916 14.6582C20.8877 14.7305 20.8857 14.7988 20.8857 14.8633V15.0771C20.8857 15.251 20.8887 15.4785 20.8945 15.7598C20.9023 16.0391 20.9111 16.3594 20.9209 16.7207C20.9287 17.0273 20.9355 17.2822 20.9414 17.4854C20.9492 17.6865 20.9561 17.8525 20.9619 17.9834C20.9678 18.1143 20.9736 18.2178 20.9795 18.2939C20.9854 18.3682 20.9912 18.4316 20.9971 18.4844C21.001 18.5391 21.0078 18.583 21.0176 18.6162C21.0293 18.6475 21.0576 18.6738 21.1025 18.6953C21.1494 18.7148 21.2197 18.7305 21.3135 18.7422C21.4092 18.7539 21.5439 18.7656 21.7178 18.7773L21.6006 19.041C21.5791 19.0391 21.5342 19.0352 21.4658 19.0293C21.3994 19.0254 21.3193 19.0215 21.2256 19.0176C21.1338 19.0137 21.0332 19.0098 20.9238 19.0059C20.8145 19.002 20.707 19 20.6016 19C20.4746 19 20.3535 19.002 20.2383 19.0059C20.125 19.0117 20.0234 19.0176 19.9336 19.0234C19.8457 19.0293 19.7734 19.0352 19.7168 19.041C19.6602 19.0449 19.626 19.0469 19.6143 19.0469C19.6143 19.0293 19.6172 19.0049 19.623 18.9736C19.6309 18.9404 19.6533 18.9072 19.6904 18.874C19.7275 18.8408 19.7842 18.8096 19.8604 18.7803C19.9385 18.751 20.0479 18.7305 20.1885 18.7188C20.1924 18.6582 20.1943 18.5977 20.1943 18.5371V18.3086C20.1943 18.1211 20.1914 17.9023 20.1855 17.6523C20.1816 17.4023 20.1748 17.123 20.165 16.8145C20.1553 16.5273 20.1465 16.2695 20.1387 16.041C20.1289 15.8125 20.1221 15.6191 20.1182 15.4609L20.0947 15.4551C19.8057 15.9863 19.5107 16.5459 19.21 17.1338C18.9111 17.7197 18.6025 18.3418 18.2842 19C18.249 19.0039 18.2129 19.0088 18.1758 19.0146C18.1387 19.0225 18.1025 19.0312 18.0674 19.041C17.8252 18.3984 17.5635 17.7822 17.2822 17.1924C17.001 16.6006 16.71 16.0273 16.4092 15.4727L16.3916 15.4785C16.376 15.6602 16.3594 15.8525 16.3418 16.0557C16.3262 16.2568 16.3105 16.459 16.2949 16.6621C16.2812 16.8652 16.2676 17.0645 16.2539 17.2598C16.2402 17.4531 16.2285 17.6309 16.2188 17.793C16.209 17.9551 16.2012 18.0977 16.1953 18.2207C16.1895 18.3418 16.1865 18.4316 16.1865 18.4902C16.1865 18.543 16.1914 18.5859 16.2012 18.6191C16.2129 18.6504 16.2422 18.6758 16.2891 18.6953C16.3359 18.7148 16.4053 18.7305 16.4971 18.7422C16.5908 18.7539 16.7197 18.7656 16.8838 18.7773L16.7666 19.041C16.7471 19.0391 16.71 19.0352 16.6553 19.0293C16.6006 19.0254 16.5332 19.0215 16.4531 19.0176C16.375 19.0137 16.2871 19.0098 16.1895 19.0059C16.0938 19.002 15.9941 19 15.8906 19C15.7676 19 15.6533 19.002 15.5479 19.0059C15.4443 19.0117 15.3535 19.0176 15.2754 19.0234C15.1992 19.0293 15.1377 19.0352 15.0908 19.041C15.042 19.0449 15.0127 19.0469 15.0029 19.0469C15.0029 19.0293 15.0078 19.0039 15.0176 18.9707C15.0273 18.9375 15.0557 18.9033 15.1025 18.8682C15.1494 18.833 15.2207 18.8008 15.3164 18.7715C15.4141 18.7402 15.5498 18.7188 15.7236 18.707C15.7432 18.5781 15.7637 18.418 15.7852 18.2266C15.8066 18.0332 15.8281 17.8232 15.8496 17.5967C15.8711 17.3701 15.8916 17.1338 15.9111 16.8877C15.9307 16.6416 15.9492 16.4014 15.9668 16.167C15.9844 15.9326 16 15.7119 16.0137 15.5049C16.0273 15.2959 16.0381 15.1152 16.0459 14.9629C15.9893 14.8906 15.9355 14.832 15.8848 14.7871C15.8359 14.7422 15.7793 14.7061 15.7148 14.6787C15.6504 14.6514 15.5732 14.6309 15.4834 14.6172C15.3955 14.6035 15.2842 14.5918 15.1494 14.582L15.249 14.3242C15.2725 14.3281 15.3242 14.332 15.4043 14.3359C15.4844 14.3398 15.5781 14.3438 15.6855 14.3477C15.793 14.3496 15.9062 14.3525 16.0254 14.3564C16.1445 14.3584 16.2549 14.3594 16.3564 14.3594C16.4287 14.3594 16.502 14.3584 16.5762 14.3564C16.6504 14.3545 16.708 14.3516 16.749 14.3477C17.0635 14.8789 17.3613 15.4287 17.6426 15.9971C17.9258 16.5654 18.1963 17.1465 18.4541 17.7402H18.4775C18.6963 17.3027 18.9541 16.8027 19.251 16.2402C19.5498 15.6758 19.8877 15.0469 20.2646 14.3535ZM25.5059 16.5273C25.5996 16.7969 25.6826 17.0352 25.7549 17.2422C25.8271 17.4473 25.8906 17.626 25.9453 17.7783C26 17.9307 26.0479 18.0596 26.0889 18.165C26.1299 18.2686 26.166 18.3535 26.1973 18.4199C26.2266 18.4883 26.2539 18.543 26.2793 18.584C26.3047 18.625 26.3438 18.6582 26.3965 18.6836C26.4512 18.709 26.5264 18.7285 26.6221 18.7422C26.7197 18.7539 26.8535 18.7656 27.0234 18.7773L26.9062 19.041C26.8828 19.0391 26.8398 19.0352 26.7773 19.0293C26.7148 19.0254 26.6387 19.0215 26.5488 19.0176C26.4609 19.0137 26.3623 19.0098 26.2529 19.0059C26.1455 19.002 26.0332 19 25.916 19C25.791 19 25.667 19.002 25.5439 19.0059C25.4229 19.0098 25.3125 19.0146 25.2129 19.0205C25.1133 19.0264 25.0303 19.0312 24.9639 19.0352C24.8994 19.041 24.8613 19.0449 24.8496 19.0469C24.8496 19.0273 24.8525 19.002 24.8584 18.9707C24.8662 18.9375 24.8887 18.9043 24.9258 18.8711C24.9648 18.8379 25.0234 18.8066 25.1016 18.7773C25.1797 18.748 25.291 18.7266 25.4355 18.7129C25.3848 18.5488 25.3223 18.3574 25.248 18.1387C25.1758 17.9199 25.0898 17.6738 24.9902 17.4004C24.668 17.4004 24.374 17.4014 24.1084 17.4033C23.8428 17.4053 23.5918 17.4102 23.3555 17.418C23.2871 17.5762 23.2295 17.71 23.1826 17.8193C23.1357 17.9287 23.0967 18.0215 23.0654 18.0977C23.0361 18.1719 23.0117 18.2334 22.9922 18.2822C22.9727 18.3311 22.957 18.373 22.9453 18.4082C22.9238 18.4688 22.9082 18.5146 22.8984 18.5459C22.8906 18.5771 22.8867 18.6025 22.8867 18.6221C22.8867 18.6455 22.8945 18.665 22.9102 18.6807C22.9277 18.6963 22.958 18.71 23.001 18.7217C23.0459 18.7314 23.1064 18.7402 23.1826 18.748C23.2607 18.7559 23.3613 18.7637 23.4844 18.7715L23.3672 19.0352C23.3516 19.0332 23.3135 19.0303 23.2529 19.0264C23.1924 19.0225 23.1211 19.0186 23.0391 19.0146C22.957 19.0107 22.8711 19.0068 22.7812 19.0029C22.6914 19.001 22.6104 19 22.5381 19C22.458 19 22.3711 19.002 22.2773 19.0059C22.1855 19.0098 22.0986 19.0137 22.0166 19.0176C21.9365 19.0215 21.8682 19.0254 21.8115 19.0293C21.7529 19.0352 21.7188 19.0391 21.709 19.041C21.709 19.0215 21.7129 18.9961 21.7207 18.9648C21.7285 18.9316 21.7529 18.8984 21.7939 18.8652C21.835 18.8301 21.8984 18.7979 21.9844 18.7686C22.0703 18.7393 22.1914 18.7188 22.3477 18.707C22.4023 18.6055 22.4668 18.4795 22.541 18.3291C22.6152 18.1787 22.6953 18.0117 22.7812 17.8281C22.8672 17.6445 22.957 17.4492 23.0508 17.2422C23.1445 17.0332 23.2402 16.8203 23.3379 16.6035C23.4551 16.3398 23.5566 16.1104 23.6426 15.915C23.7285 15.7178 23.8027 15.5469 23.8652 15.4023C23.9277 15.2559 23.9805 15.1309 24.0234 15.0273C24.0664 14.9219 24.1035 14.8291 24.1348 14.749C24.166 14.667 24.1934 14.5918 24.2168 14.5234C24.2422 14.4551 24.2676 14.3848 24.293 14.3125C24.3242 14.3105 24.3594 14.3076 24.3984 14.3037C24.4375 14.2998 24.4775 14.2949 24.5186 14.2891C24.5615 14.2832 24.6035 14.2773 24.6445 14.2715C24.6875 14.2637 24.7285 14.2559 24.7676 14.248C24.7988 14.3672 24.833 14.4922 24.8701 14.623C24.9092 14.7539 24.9561 14.9072 25.0107 15.083C25.0674 15.2568 25.1357 15.4609 25.2158 15.6953C25.2959 15.9277 25.3926 16.2051 25.5059 16.5273ZM23.4902 17.1133C23.7188 17.1035 23.9473 17.0967 24.1758 17.0928C24.4043 17.0908 24.6387 17.0879 24.8789 17.084L24.7148 16.6211C24.6445 16.4141 24.5732 16.2061 24.501 15.9971C24.4287 15.79 24.3574 15.5781 24.2871 15.3613H24.2637C24.1699 15.5801 24.0762 15.7969 23.9824 16.0117C23.8906 16.2266 23.7949 16.4434 23.6953 16.6621L23.4902 17.1133Z" fill="black"/>
<rect x="31.5" y="0.5" width="21" height="31" rx="8.5" stroke="black"/>
<path d="M32.9922 8.94141C33.3867 8.86328 33.7793 8.79492 34.1699 8.73633C34.5605 8.67773 34.9375 8.63086 35.3008 8.5957C35.668 8.55664 36.0156 8.5293 36.3438 8.51367C36.6719 8.49414 36.9707 8.48438 37.2402 8.48438C38.1426 8.48438 38.9316 8.58203 39.6074 8.77734C40.2871 8.97266 40.8516 9.25586 41.3008 9.62695C41.7539 9.99805 42.0938 10.4531 42.3203 10.9922C42.5469 11.5312 42.6602 12.1426 42.6602 12.8262C42.6602 13.2324 42.6172 13.6465 42.5312 14.0684C42.4492 14.4863 42.3184 14.8906 42.1387 15.2812C41.959 15.668 41.7246 16.0332 41.4355 16.377C41.1504 16.7168 40.8047 17.0156 40.3984 17.2734C39.9922 17.5273 39.5215 17.7285 38.9863 17.877C38.4551 18.0215 37.8516 18.0938 37.1758 18.0938C36.9922 18.0938 36.8145 18.0879 36.6426 18.0762C36.4746 18.0684 36.3027 18.0586 36.127 18.0469C35.9473 18.0352 35.7598 18.0234 35.5645 18.0117C35.373 18.0039 35.1641 18 34.9375 18C34.707 18 34.4766 18.0039 34.2461 18.0117C34.0156 18.0234 33.8066 18.0352 33.6191 18.0469C33.4316 18.0586 33.2773 18.0703 33.1562 18.082C33.0352 18.0898 32.9688 18.0938 32.957 18.0938C32.957 18.0586 32.9629 18.0098 32.9746 17.9473C32.9902 17.8809 33.0352 17.8125 33.1094 17.7422C33.1875 17.6719 33.3086 17.6074 33.4727 17.5488C33.6406 17.4902 33.8789 17.4492 34.1875 17.4258C34.2031 17.25 34.2148 17.0391 34.2227 16.793C34.2344 16.543 34.2422 16.2715 34.2461 15.9785C34.2539 15.6816 34.2578 15.3711 34.2578 15.0469V10.1719C34.2578 9.98828 34.2559 9.83008 34.252 9.69727C34.252 9.56055 34.25 9.4375 34.2461 9.32812L33.543 9.43359C33.3086 9.46875 33.0742 9.50781 32.8398 9.55078L32.9922 8.94141ZM36.6719 9.12891C36.4062 9.12891 36.1133 9.14062 35.793 9.16406C35.7852 9.35938 35.7793 9.58398 35.7754 9.83789C35.7715 10.0879 35.7695 10.3887 35.7695 10.7402V13.5938C35.7695 14.1992 35.7695 14.7031 35.7695 15.1055C35.7734 15.5078 35.7754 15.834 35.7754 16.084C35.7793 16.3301 35.7832 16.5117 35.7871 16.6289C35.7949 16.7461 35.8047 16.8242 35.8164 16.8633C35.8281 16.9883 35.8633 17.0898 35.9219 17.168C35.9844 17.2422 36.0664 17.3008 36.168 17.3438C36.2734 17.3828 36.3965 17.4082 36.5371 17.4199C36.6777 17.4316 36.834 17.4375 37.0059 17.4375C37.5762 17.4375 38.0703 17.3887 38.4883 17.291C38.9062 17.1895 39.2617 17.0527 39.5547 16.8809C39.8477 16.7051 40.084 16.498 40.2637 16.2598C40.4473 16.0215 40.5898 15.7637 40.6914 15.4863C40.793 15.209 40.8613 14.918 40.8965 14.6133C40.9316 14.3047 40.9492 13.9961 40.9492 13.6875C40.9492 12.8789 40.8535 12.1875 40.6621 11.6133C40.4707 11.0352 40.1914 10.5625 39.8242 10.1953C39.4609 9.82812 39.0137 9.55859 38.4824 9.38672C37.9512 9.21484 37.3477 9.12891 36.6719 9.12891Z" fill="black"/>
<path d="M43.4648 13.4844C44.0859 13.4844 44.6699 13.5879 45.2168 13.7949C45.7637 13.998 46.2422 14.2988 46.6523 14.6973C47.0625 15.0918 47.3867 15.5781 47.625 16.1562C47.8633 16.7344 47.9824 17.3984 47.9824 18.1484C47.9824 18.7148 47.9141 19.2305 47.7773 19.6953C47.6406 20.1562 47.4531 20.5684 47.2148 20.9316C46.9805 21.2949 46.7031 21.6133 46.3828 21.8867C46.0664 22.1562 45.7285 22.3828 45.3691 22.5664C45.6895 23.0156 46.0371 23.3887 46.4121 23.6855C46.7871 23.9863 47.1738 24.2266 47.5723 24.4062C47.9707 24.5859 48.3711 24.7129 48.7734 24.7871C49.1797 24.8613 49.5723 24.8984 49.9512 24.8984C50.2832 24.8984 50.6055 24.873 50.918 24.8223C51.2305 24.7754 51.5273 24.7109 51.8086 24.6289C52.0938 24.5469 51.7461 24.1133 52 24C52.2539 23.8867 51.9902 23.7656 52.209 23.6367L52.4668 24.0703C51.709 24.5938 52.0625 25.3203 51.293 25.5781C50.5273 25.8359 49.7598 25.9648 48.9902 25.9648C48.5137 25.9648 48.0391 25.9121 47.5664 25.8066C47.0977 25.7012 46.6367 25.5332 46.1836 25.3027C45.7305 25.0762 45.2871 24.7812 44.8535 24.418C44.4238 24.0586 44.0137 23.6211 43.623 23.1055C43.459 23.1289 43.2949 23.1465 43.1309 23.1582C42.9707 23.1699 42.8145 23.1758 42.6621 23.1758C42.2559 23.1758 41.8633 23.1328 41.4844 23.0469C41.1094 22.9609 40.7539 22.834 40.418 22.666C40.0859 22.4941 39.7812 22.2812 39.5039 22.0273C39.2305 21.7695 38.9941 21.4707 38.7949 21.1309C38.5996 20.7871 38.4473 20.4023 38.3379 19.9766C38.2285 19.5508 38.1738 19.082 38.1738 18.5703C38.1738 17.9453 38.252 17.3848 38.4082 16.8887C38.5684 16.3926 38.7832 15.957 39.0527 15.582C39.3223 15.2031 39.6348 14.8809 39.9902 14.6152C40.3457 14.3496 40.7188 14.1328 41.1094 13.9648C41.5039 13.7969 41.9023 13.6758 42.3047 13.6016C42.7109 13.5234 43.0977 13.4844 43.4648 13.4844ZM39.8379 17.832C39.8379 18.543 39.9258 19.1797 40.1016 19.7422C40.2773 20.3047 40.5254 20.7812 40.8457 21.1719C41.166 21.5625 41.5508 21.8613 42 22.0684C42.4531 22.2754 42.9531 22.3789 43.5 22.3789C43.8789 22.3789 44.2383 22.3242 44.5781 22.2148C44.9219 22.1016 45.2227 21.9102 45.4805 21.6406C45.7422 21.3711 45.9492 21.0117 46.1016 20.5625C46.2539 20.1094 46.3301 19.5449 46.3301 18.8691C46.3301 18.1543 46.2402 17.5137 46.0605 16.9473C45.8848 16.3809 45.6367 15.9023 45.3164 15.5117C44.9961 15.1172 44.6113 14.8164 44.1621 14.6094C43.7168 14.3984 43.2227 14.293 42.6797 14.293C42.3008 14.293 41.9395 14.3516 41.5957 14.4688C41.252 14.582 40.9492 14.7754 40.6875 15.0488C40.4297 15.3223 40.2227 15.6855 40.0664 16.1387C39.9141 16.5918 39.8379 17.1562 39.8379 17.832Z" fill="black"/>
<path d="M59.9824 14.2422C60.293 14.2422 60.585 14.2939 60.8584 14.3975C61.1318 14.499 61.3711 14.6494 61.5762 14.8486C61.7812 15.0459 61.9434 15.2891 62.0625 15.5781C62.1816 15.8672 62.2412 16.1992 62.2412 16.5742C62.2412 16.8574 62.207 17.1152 62.1387 17.3477C62.0703 17.5781 61.9766 17.7842 61.8574 17.9658C61.7402 18.1475 61.6016 18.3066 61.4414 18.4434C61.2832 18.5781 61.1143 18.6914 60.9346 18.7832C61.0947 19.0078 61.2686 19.1943 61.4561 19.3428C61.6436 19.4932 61.8369 19.6133 62.0361 19.7031C62.2354 19.793 62.4355 19.8564 62.6367 19.8936C62.8398 19.9307 63.0361 19.9492 63.2256 19.9492C63.3916 19.9492 63.5527 19.9365 63.709 19.9111C63.8652 19.8877 64.0137 19.8555 64.1543 19.8145C64.2969 19.7734 64.4316 19.7246 64.5586 19.668C64.6855 19.6113 64.8037 19.5508 64.9131 19.4863L65.042 19.7031C64.6631 19.9648 64.2812 20.1602 63.8965 20.2891C63.5137 20.418 63.1299 20.4824 62.7451 20.4824C62.5068 20.4824 62.2695 20.4561 62.0332 20.4033C61.7988 20.3506 61.5684 20.2666 61.3418 20.1514C61.1152 20.0381 60.8936 19.8906 60.6768 19.709C60.4619 19.5293 60.2568 19.3105 60.0615 19.0527C59.9795 19.0645 59.8975 19.0732 59.8154 19.0791C59.7354 19.085 59.6572 19.0879 59.5811 19.0879C59.3779 19.0879 59.1816 19.0664 58.9922 19.0234C58.8047 18.9805 58.627 18.917 58.459 18.833C58.293 18.7471 58.1406 18.6406 58.002 18.5137C57.8652 18.3848 57.7471 18.2354 57.6475 18.0654C57.5498 17.8936 57.4736 17.7012 57.4189 17.4883C57.3643 17.2754 57.3369 17.041 57.3369 16.7852C57.3369 16.4727 57.376 16.1924 57.4541 15.9443C57.5342 15.6963 57.6416 15.4785 57.7764 15.291C57.9111 15.1016 58.0674 14.9404 58.2451 14.8076C58.4229 14.6748 58.6094 14.5664 58.8047 14.4824C59.002 14.3984 59.2012 14.3379 59.4023 14.3008C59.6055 14.2617 59.7988 14.2422 59.9824 14.2422ZM58.1689 16.416C58.1689 16.7715 58.2129 17.0898 58.3008 17.3711C58.3887 17.6523 58.5127 17.8906 58.6729 18.0859C58.833 18.2812 59.0254 18.4307 59.25 18.5342C59.4766 18.6377 59.7266 18.6895 60 18.6895C60.1895 18.6895 60.3691 18.6621 60.5391 18.6074C60.7109 18.5508 60.8613 18.4551 60.9902 18.3203C61.1211 18.1855 61.2246 18.0059 61.3008 17.7812C61.377 17.5547 61.415 17.2725 61.415 16.9346C61.415 16.5771 61.3701 16.2568 61.2803 15.9736C61.1924 15.6904 61.0684 15.4512 60.9082 15.2559C60.748 15.0586 60.5557 14.9082 60.3311 14.8047C60.1084 14.6992 59.8613 14.6465 59.5898 14.6465C59.4004 14.6465 59.2197 14.6758 59.0479 14.7344C58.876 14.791 58.7246 14.8877 58.5938 15.0244C58.4648 15.1611 58.3613 15.3428 58.2832 15.5693C58.207 15.7959 58.1689 16.0781 58.1689 16.416ZM64.21 14.6582C64.2041 14.6855 64.1982 14.7393 64.1924 14.8193C64.1885 14.8994 64.1846 14.9941 64.1807 15.1035C64.1787 15.2129 64.1758 15.3301 64.1719 15.4551C64.1699 15.5801 64.1689 15.7002 64.1689 15.8154C64.167 15.9307 64.166 16.0361 64.166 16.1318C64.1641 16.2275 64.1631 16.2998 64.1631 16.3486C64.1631 16.7412 64.1855 17.083 64.2305 17.374C64.2773 17.665 64.3545 17.9072 64.4619 18.1006C64.5713 18.292 64.7158 18.4355 64.8955 18.5312C65.0752 18.625 65.2988 18.6719 65.5664 18.6719C65.793 18.6719 65.9844 18.6406 66.1406 18.5781C66.2969 18.5137 66.4268 18.4248 66.5303 18.3115C66.6338 18.1982 66.7139 18.0645 66.7705 17.9102C66.8291 17.7559 66.8721 17.5889 66.8994 17.4092C66.9268 17.2275 66.9434 17.0371 66.9492 16.8379C66.9551 16.6387 66.958 16.4365 66.958 16.2314C66.958 16.0049 66.957 15.8164 66.9551 15.666C66.9531 15.5137 66.9502 15.3877 66.9463 15.2881C66.9424 15.1865 66.9375 15.1035 66.9316 15.0391C66.9277 14.9746 66.9229 14.916 66.917 14.8633C66.9111 14.8086 66.9033 14.7656 66.8936 14.7344C66.8838 14.7031 66.8574 14.6787 66.8145 14.6611C66.7715 14.6436 66.7051 14.6299 66.6152 14.6201C66.5273 14.6084 66.4014 14.5957 66.2373 14.582L66.3135 14.3242C66.3271 14.3281 66.3633 14.332 66.4219 14.3359C66.4805 14.3398 66.5498 14.3438 66.6299 14.3477C66.71 14.3516 66.7959 14.3545 66.8877 14.3564C66.9795 14.3584 67.0654 14.3594 67.1455 14.3594C67.2725 14.3594 67.3926 14.3564 67.5059 14.3506C67.6191 14.3447 67.7178 14.3389 67.8018 14.333C67.8877 14.3271 67.9561 14.3213 68.0068 14.3154C68.0576 14.3096 68.085 14.3066 68.0889 14.3066C68.0889 14.3301 68.085 14.3594 68.0771 14.3945C68.0693 14.4277 68.0439 14.4619 68.001 14.4971C67.96 14.5322 67.8945 14.5645 67.8047 14.5938C67.7148 14.623 67.5889 14.6445 67.4268 14.6582C67.4111 14.8008 67.3994 14.9453 67.3916 15.0918C67.3857 15.2383 67.3809 15.3809 67.377 15.5195C67.375 15.6562 67.374 15.7852 67.374 15.9062C67.3721 16.0293 67.3701 16.1367 67.3682 16.2285C67.3643 16.4961 67.3525 16.7529 67.333 16.999C67.3135 17.2451 67.2783 17.4756 67.2275 17.6904C67.1768 17.9033 67.1045 18.0967 67.0107 18.2705C66.9189 18.4443 66.7969 18.5938 66.6445 18.7188C66.4941 18.8418 66.3105 18.9365 66.0938 19.0029C65.877 19.0713 65.6172 19.1055 65.3145 19.1055C64.9902 19.1055 64.707 19.0635 64.4648 18.9795C64.2227 18.8936 64.0205 18.7588 63.8584 18.5752C63.6963 18.3896 63.5742 18.1514 63.4922 17.8604C63.4121 17.5674 63.3721 17.2139 63.3721 16.7998C63.3721 16.7627 63.373 16.6982 63.375 16.6064C63.375 16.5146 63.375 16.4111 63.375 16.2959C63.375 16.1826 63.376 16.0645 63.3779 15.9414C63.3779 15.8184 63.3779 15.7051 63.3779 15.6016C63.3779 15.4766 63.377 15.3711 63.375 15.2852C63.375 15.1992 63.374 15.1289 63.3721 15.0742C63.3701 15.0176 63.3682 14.9736 63.3662 14.9424C63.3643 14.9092 63.3623 14.8828 63.3604 14.8633C63.3564 14.8086 63.3496 14.7656 63.3398 14.7344C63.332 14.7031 63.3066 14.6787 63.2637 14.6611C63.2227 14.6436 63.1582 14.6299 63.0703 14.6201C62.9844 14.6084 62.8623 14.5957 62.7041 14.582L62.8037 14.3242C62.8213 14.3281 62.8652 14.332 62.9355 14.3359C63.0059 14.3398 63.0889 14.3438 63.1846 14.3477C63.2822 14.3516 63.3857 14.3545 63.4951 14.3564C63.6064 14.3584 63.71 14.3594 63.8057 14.3594C63.96 14.3594 64.0996 14.3564 64.2246 14.3506C64.3516 14.3447 64.459 14.3389 64.5469 14.333C64.6367 14.3271 64.707 14.3213 64.7578 14.3154C64.8086 14.3096 64.8369 14.3066 64.8428 14.3066C64.8428 14.3301 64.8379 14.3594 64.8281 14.3945C64.8184 14.4277 64.793 14.4619 64.752 14.4971C64.7109 14.5322 64.6475 14.5645 64.5615 14.5938C64.4775 14.623 64.3604 14.6445 64.21 14.6582ZM69.7383 16.7441V17.875C69.7383 18.0215 69.7393 18.1436 69.7412 18.2412C69.7432 18.3389 69.7461 18.4062 69.75 18.4434C69.7539 18.5 69.7646 18.5449 69.7822 18.5781C69.8018 18.6094 69.834 18.6338 69.8789 18.6514C69.9238 18.667 69.9854 18.6777 70.0635 18.6836C70.1416 18.6875 70.2422 18.6895 70.3652 18.6895C70.5488 18.6895 70.708 18.6855 70.8428 18.6777C70.9775 18.668 71.0947 18.6504 71.1943 18.625C71.2939 18.5996 71.3799 18.5635 71.4521 18.5166C71.5264 18.4697 71.5928 18.4082 71.6514 18.332C71.71 18.2539 71.7656 18.1602 71.8184 18.0508C71.8711 17.9414 71.9277 17.8105 71.9883 17.6582L72.252 17.7168C72.2051 17.9277 72.1641 18.1074 72.1289 18.2559C72.0938 18.4023 72.0615 18.5254 72.0322 18.625C72.0029 18.7227 71.9746 18.8008 71.9473 18.8594C71.9199 18.916 71.8896 18.959 71.8564 18.9883C71.8252 19.0156 71.7891 19.0332 71.748 19.041C71.709 19.0488 71.6621 19.0527 71.6074 19.0527C71.5645 19.0527 71.4971 19.0508 71.4053 19.0469C71.3135 19.0449 71.207 19.042 71.0859 19.0381C70.9648 19.0342 70.832 19.0303 70.6875 19.0264C70.5449 19.0225 70.3994 19.0186 70.251 19.0146C70.1045 19.0107 69.96 19.0068 69.8174 19.0029C69.6748 19.001 69.543 19 69.4219 19C69.0762 19 68.8145 19.0078 68.6367 19.0234C68.457 19.0391 68.3477 19.0469 68.3086 19.0469C68.3086 19.0293 68.3115 19.0049 68.3174 18.9736C68.3252 18.9404 68.3486 18.9062 68.3877 18.8711C68.4268 18.8359 68.4893 18.8037 68.5752 18.7744C68.6611 18.7451 68.7832 18.7246 68.9414 18.7129C68.9492 18.6309 68.9551 18.5273 68.959 18.4023C68.9648 18.2773 68.9688 18.1436 68.9707 18.001C68.9746 17.8584 68.9766 17.7129 68.9766 17.5645V16.3486C68.9766 16.126 68.9756 15.9365 68.9736 15.7803C68.9736 15.6221 68.9727 15.4932 68.9707 15.3936C68.9688 15.292 68.9668 15.208 68.9648 15.1416C68.9629 15.0752 68.9609 15.0215 68.959 14.9805C68.957 14.9395 68.9551 14.9004 68.9531 14.8633C68.9492 14.8086 68.9424 14.7656 68.9326 14.7344C68.9248 14.7031 68.9004 14.6787 68.8594 14.6611C68.8184 14.6436 68.7539 14.6299 68.666 14.6201C68.5801 14.6084 68.457 14.5957 68.2969 14.582L68.3965 14.3242C68.4453 14.332 68.5625 14.3398 68.748 14.3477C68.9355 14.3555 69.1816 14.3594 69.4863 14.3594C69.6387 14.3594 69.7969 14.3584 69.9609 14.3564C70.127 14.3545 70.29 14.3516 70.4502 14.3477C70.6123 14.3438 70.7656 14.3398 70.9102 14.3359C71.0566 14.332 71.1875 14.3281 71.3027 14.3242C71.416 14.3203 71.5078 14.3174 71.5781 14.3154C71.6504 14.3135 71.6924 14.3125 71.7041 14.3125C71.7314 14.3125 71.7598 14.3223 71.7891 14.3418C71.8184 14.3594 71.834 14.3984 71.8359 14.459C71.8398 14.5723 71.8418 14.7129 71.8418 14.8809C71.8418 15.0488 71.8457 15.2227 71.8535 15.4023L71.5957 15.4316C71.5703 15.3105 71.5449 15.207 71.5195 15.1211C71.4941 15.0352 71.4629 14.9648 71.4258 14.9102C71.3887 14.8535 71.3418 14.8096 71.2852 14.7783C71.2305 14.7451 71.1592 14.7207 71.0713 14.7051C70.9834 14.6895 70.877 14.6797 70.752 14.6758C70.627 14.6719 70.4766 14.6699 70.3008 14.6699H69.7676C69.7617 14.7754 69.7568 14.8867 69.7529 15.0039C69.749 15.1211 69.7461 15.25 69.7441 15.3906C69.7422 15.5312 69.7402 15.6875 69.7383 15.8594C69.7383 16.0293 69.7383 16.2207 69.7383 16.4336C69.9746 16.416 70.1895 16.4004 70.3828 16.3867C70.5762 16.373 70.7432 16.3613 70.8838 16.3516C71.0244 16.3418 71.1367 16.335 71.2207 16.3311C71.3047 16.3252 71.3555 16.3223 71.373 16.3223C71.4336 16.3223 71.4756 16.3467 71.499 16.3955C71.5244 16.4424 71.5371 16.4951 71.5371 16.5537C71.5371 16.6084 71.5303 16.6582 71.5166 16.7031C71.5029 16.7461 71.4902 16.7832 71.4785 16.8145C71.3262 16.8066 71.1777 16.7998 71.0332 16.7939C70.8887 16.7861 70.7451 16.7793 70.6025 16.7734C70.4619 16.7676 70.3193 16.7627 70.1748 16.7588C70.0322 16.7529 69.8867 16.748 69.7383 16.7441ZM73.0986 17.6113C73.1182 17.8262 73.167 18.0068 73.2451 18.1533C73.3252 18.2979 73.4219 18.4141 73.5352 18.502C73.6484 18.5898 73.7734 18.6533 73.9102 18.6924C74.0469 18.7295 74.1826 18.748 74.3174 18.748C74.4365 18.748 74.5469 18.7344 74.6484 18.707C74.752 18.6797 74.8398 18.6387 74.9121 18.584C74.9863 18.5273 75.0439 18.458 75.085 18.376C75.1279 18.292 75.1494 18.1934 75.1494 18.0801C75.1494 17.9453 75.1201 17.8291 75.0615 17.7314C75.0029 17.6318 74.9238 17.542 74.8242 17.4619C74.7246 17.3818 74.6084 17.3076 74.4756 17.2393C74.3428 17.1709 74.2021 17.0996 74.0537 17.0254C73.9521 16.9766 73.8506 16.9258 73.749 16.873C73.6494 16.8203 73.5537 16.7637 73.4619 16.7031C73.3701 16.6426 73.2842 16.5771 73.2041 16.5068C73.126 16.4365 73.0576 16.3584 72.999 16.2725C72.9404 16.1865 72.8945 16.0928 72.8613 15.9912C72.8281 15.8877 72.8115 15.7744 72.8115 15.6514C72.8115 15.4424 72.8574 15.252 72.9492 15.0801C73.043 14.9062 73.1699 14.7578 73.3301 14.6348C73.4902 14.5098 73.6777 14.4131 73.8926 14.3447C74.1094 14.2764 74.3398 14.2422 74.584 14.2422C74.7441 14.2422 74.9053 14.2559 75.0674 14.2832C75.2314 14.3105 75.376 14.3438 75.501 14.3828C75.5264 14.3926 75.5469 14.4014 75.5625 14.4092C75.5781 14.417 75.5898 14.4268 75.5977 14.4385C75.6055 14.4502 75.6104 14.4648 75.6123 14.4824C75.6162 14.5 75.6182 14.5234 75.6182 14.5527V14.9336C75.6182 15.0312 75.6191 15.1348 75.6211 15.2441C75.623 15.3535 75.626 15.4531 75.6299 15.543L75.3721 15.5664C75.3311 15.2422 75.2236 15.002 75.0498 14.8457C74.876 14.6895 74.6377 14.6113 74.335 14.6113C74.2178 14.6113 74.1074 14.624 74.0039 14.6494C73.9023 14.6729 73.8135 14.7119 73.7373 14.7666C73.6611 14.8213 73.6006 14.8916 73.5557 14.9775C73.5127 15.0615 73.4912 15.1631 73.4912 15.2822C73.4912 15.417 73.5186 15.5352 73.5732 15.6367C73.6299 15.7363 73.7061 15.8271 73.8018 15.9092C73.8975 15.9912 74.0098 16.0674 74.1387 16.1377C74.2676 16.2061 74.4053 16.2754 74.5518 16.3457C74.7158 16.4258 74.8779 16.5078 75.0381 16.5918C75.1982 16.6758 75.3418 16.7715 75.4688 16.8789C75.5957 16.9844 75.6982 17.1064 75.7764 17.2451C75.8545 17.3838 75.8936 17.5469 75.8936 17.7344C75.8936 17.877 75.8701 18.0098 75.8232 18.1328C75.7764 18.2539 75.7109 18.3652 75.627 18.4668C75.5449 18.5664 75.4473 18.6562 75.334 18.7363C75.2207 18.8145 75.0967 18.8809 74.9619 18.9355C74.8291 18.9883 74.6875 19.0283 74.5371 19.0557C74.3887 19.085 74.2373 19.0996 74.083 19.0996C73.9443 19.0996 73.7998 19.0889 73.6494 19.0674C73.499 19.0459 73.3613 19.0176 73.2363 18.9824C73.1133 18.9453 73.0117 18.9023 72.9316 18.8535C72.8516 18.8047 72.8115 18.7539 72.8115 18.7012V18.6924C72.8115 18.6865 72.8125 18.6719 72.8145 18.6484C72.8145 18.627 72.8154 18.5938 72.8174 18.5488C72.8174 18.5059 72.8184 18.4453 72.8203 18.3672C72.8223 18.2871 72.8252 18.1875 72.8291 18.0684C72.833 17.9492 72.8369 17.8047 72.8408 17.6348L73.0986 17.6113ZM78.8555 15.4756V17.9775C78.8555 18.0635 78.8564 18.1377 78.8584 18.2002C78.8604 18.2607 78.8623 18.3135 78.8643 18.3584C78.8662 18.4014 78.8691 18.4414 78.873 18.4785C78.875 18.5312 78.8818 18.5742 78.8936 18.6074C78.9072 18.6406 78.9404 18.668 78.9932 18.6895C79.0479 18.709 79.1309 18.7246 79.2422 18.7363C79.3535 18.748 79.5098 18.7598 79.7109 18.7715L79.5938 19.0469C79.5723 19.0449 79.5273 19.041 79.459 19.0352C79.3926 19.0312 79.3086 19.0264 79.207 19.0205C79.1055 19.0146 78.9902 19.0098 78.8613 19.0059C78.7324 19.002 78.5967 19 78.4541 19C78.2998 19 78.1543 19.002 78.0176 19.0059C77.8828 19.0117 77.7637 19.0176 77.6602 19.0234C77.5586 19.0293 77.4766 19.0352 77.4141 19.041C77.3516 19.0469 77.3164 19.0508 77.3086 19.0527C77.3086 19.0352 77.3125 19.0098 77.3203 18.9766C77.3281 18.9414 77.3555 18.9062 77.4023 18.8711C77.4492 18.8359 77.5234 18.8027 77.625 18.7715C77.7285 18.7402 77.875 18.7188 78.0645 18.707C78.0723 18.6094 78.0781 18.498 78.082 18.373C78.0859 18.2461 78.0889 18.1035 78.0908 17.9453C78.0928 17.7871 78.0938 17.6113 78.0938 17.418V16.1377C78.0938 15.9541 78.0938 15.7949 78.0938 15.6602C78.0918 15.5254 78.0908 15.4092 78.0908 15.3115C78.0908 15.2158 78.0908 15.1318 78.0908 15.0596C78.0889 14.9893 78.0879 14.9268 78.0879 14.8721V14.7109C77.875 14.7109 77.6953 14.7129 77.5488 14.7168C77.4023 14.7207 77.2793 14.7324 77.1797 14.752C77.0801 14.7695 77 14.7988 76.9395 14.8398C76.8789 14.8789 76.8291 14.9355 76.79 15.0098C76.751 15.082 76.7188 15.1738 76.6934 15.2852C76.668 15.3965 76.6406 15.5332 76.6113 15.6953L76.3418 15.6719C76.3535 15.5312 76.3662 15.3613 76.3799 15.1621C76.3916 14.9629 76.4062 14.7402 76.4238 14.4941C76.4297 14.4316 76.4473 14.3916 76.4766 14.374C76.5059 14.3564 76.5342 14.3477 76.5615 14.3477C76.5732 14.3477 76.6055 14.3486 76.6582 14.3506C76.7109 14.3525 76.7793 14.3545 76.8633 14.3564C76.9473 14.3584 77.0439 14.3613 77.1533 14.3652C77.2627 14.3691 77.3799 14.3721 77.5049 14.374C77.6299 14.376 77.7607 14.3779 77.8975 14.3799C78.0342 14.3818 78.1709 14.3828 78.3076 14.3828C78.6104 14.3828 78.8867 14.3789 79.1367 14.3711C79.3867 14.3633 79.6055 14.3545 79.793 14.3447C79.9805 14.335 80.1357 14.3262 80.2588 14.3184C80.3799 14.3105 80.4648 14.3066 80.5137 14.3066C80.5645 14.3066 80.6016 14.3154 80.625 14.333C80.6504 14.3506 80.666 14.3906 80.6719 14.4531C80.6719 14.4648 80.6729 14.4932 80.6748 14.5381C80.6748 14.583 80.6748 14.6387 80.6748 14.7051C80.6768 14.7715 80.6787 14.8457 80.6807 14.9277C80.6807 15.0098 80.6816 15.0918 80.6836 15.1738C80.6855 15.2559 80.6875 15.3359 80.6895 15.4141C80.6914 15.4922 80.6934 15.5605 80.6953 15.6191L80.4258 15.6426C80.4023 15.5 80.3809 15.3779 80.3613 15.2764C80.3418 15.1729 80.3184 15.0859 80.291 15.0156C80.2656 14.9453 80.2344 14.8896 80.1973 14.8486C80.1602 14.8057 80.1133 14.7725 80.0566 14.749C80 14.7256 79.9307 14.7109 79.8486 14.7051C79.7686 14.6973 79.6719 14.6934 79.5586 14.6934H79.3477C79.2949 14.6934 79.2295 14.6943 79.1514 14.6963C79.0752 14.6963 78.9805 14.6973 78.8672 14.6992C78.8633 14.8047 78.8604 14.9209 78.8584 15.0479C78.8564 15.1748 78.8555 15.3174 78.8555 15.4756Z" fill="black"/>
<line x1="57.5" y1="24.5" x2="76.5" y2="24.5" stroke="black" stroke-linecap="round"/>
</svg>
